<?xml version="1.0" encoding="utf-8"?>
<!-- Generator: Adobe Illustrator 22.1.0, SVG Export Plug-In . SVG Version: 6.00 Build 0)  -->
<svg version="1.1" id="Layer_1" xmlns="http://www.w3.org/2000/svg" xmlns:xlink="http://www.w3.org/1999/xlink" x="0px" y="0px"
	 viewBox="0 0 350 350" style="enable-background:new 0 0 350 350;" xml:space="preserve">
<style type="text/css">
	.st0{fill:none;stroke:#000000;stroke-miterlimit:10;}
	.st1{opacity:0.8;fill:#0067A3;stroke:#FFFFFF;stroke-miterlimit:10;enable-background:new    ;}
	.st2{fill:#FFFFFF;stroke:#FFFFFF;stroke-miterlimit:10;}
	.st3{fill:none;stroke:#FFFFFF;stroke-width:2;stroke-miterlimit:10;}
	.st4{fill:none;stroke:#FFFFFF;stroke-miterlimit:10;}
	.st5{opacity:0.4;fill:none;stroke:#939598;stroke-width:2;stroke-miterlimit:10;enable-background:new    ;}
	.st6{opacity:0.4;fill:none;stroke:#A7A9AC;stroke-width:2;stroke-miterlimit:10;enable-background:new    ;}
</style>
<path class="st0" d="M-352-66.3"/>
<path class="st0" d="M-348.7-16.3"/>
<rect class="st1" width="350" height="350"/>
<rect x="20.3" y="20" class="st2" width="310" height="310"/>
<line class="st3" x1="0" y1="37" x2="20.3" y2="84.3"/>
<line class="st3" x1="14.6" y1="71" x2="0" y2="102.3"/>
<line class="st3" x1="4.8" y1="92.1" x2="14.7" y2="127.7"/>
<line class="st3" x1="0" y1="162.3" x2="14.7" y2="127.7"/>
<line class="st3" x1="7.1" y1="145" x2="10.2" y2="205"/>
<line class="st3" x1="20.3" y1="222.3" x2="10.2" y2="205"/>
<line class="st3" x1="10.2" y1="138.3" x2="20.3" y2="145"/>
<line class="st3" x1="15.3" y1="213.7" x2="0" y2="224.3"/>
<line class="st3" x1="0" y1="244.3" x2="10.2" y2="275.7"/>
<line class="st3" x1="20.3" y1="251.7" x2="10.2" y2="275.7"/>
<line class="st3" x1="3.9" y1="256.4" x2="17.3" y2="217.2"/>
<line class="st3" x1="10.2" y1="275.7" x2="0" y2="303.7"/>
<line class="st3" x1="3.7" y1="293.5" x2="15.3" y2="350"/>
<line class="st3" x1="13.1" y1="339.7" x2="48" y2="330"/>
<line class="st3" x1="38.1" y1="332.8" x2="80.7" y2="350"/>
<line class="st3" x1="71.9" y1="346.5" x2="98" y2="330"/>
<line class="st3" x1="91.9" y1="333.9" x2="132.3" y2="343.3"/>
<line class="st3" x1="178.7" y1="330" x2="132.3" y2="343.3"/>
<line class="st3" x1="165.4" y1="333.8" x2="208.7" y2="350"/>
<line class="st4" x1="132.3" y1="343.3" x2="112.1" y2="350"/>
<line class="st4" x1="199.7" y1="346.7" x2="199.7" y2="346.7"/>
<line class="st3" x1="235.3" y1="330" x2="199.7" y2="346.7"/>
<line class="st3" x1="221.1" y1="336.7" x2="227.3" y2="350"/>
<line class="st3" x1="225.8" y1="346.7" x2="265.2" y2="338.2"/>
<line class="st3" x1="271.7" y1="330" x2="265.2" y2="338.2"/>
<line class="st3" x1="302.4" y1="350" x2="267.8" y2="334.9"/>
<line class="st3" x1="296.2" y1="346.7" x2="322.9" y2="330"/>
<line class="st3" x1="338.2" y1="350" x2="322.9" y2="330"/>
<line class="st3" x1="333.4" y1="342.4" x2="350" y2="302.1"/>
<line class="st3" x1="0" y1="37" x2="20.3" y2="27"/>
<line class="st3" x1="0" y1="0" x2="20.3" y2="27"/>
<line class="st3" x1="29" y1="0" x2="13.3" y2="17.6"/>
<line class="st3" x1="330.3" y1="274.3" x2="341.9" y2="321.8"/>
<line class="st3" x1="20.3" y1="9.7" x2="78.7" y2="20"/>
<line class="st3" x1="62.9" y1="16.3" x2="78.7" y2="0"/>
<line class="st3" x1="74.6" y1="4.2" x2="99.9" y2="20"/>
<line class="st3" x1="94.9" y1="16.9" x2="144.9" y2="0"/>
<line class="st3" x1="134" y1="3.7" x2="138.4" y2="20"/>
<line class="st3" x1="137" y1="14.9" x2="168.9" y2="20"/>
<line class="st3" x1="159.2" y1="18.4" x2="180.4" y2="0"/>
<line class="st3" x1="174.1" y1="5.5" x2="206.2" y2="20"/>
<line class="st3" x1="197.3" y1="16" x2="229.7" y2="8.8"/>
<line class="st3" x1="245.2" y1="0" x2="229.7" y2="8.8"/>
<line class="st3" x1="233.9" y1="6.4" x2="262.4" y2="20"/>
<line class="st3" x1="257" y1="17.4" x2="270.7" y2="9.2"/>
<line class="st3" x1="263.8" y1="0" x2="278.7" y2="20"/>
<line class="st3" x1="276.1" y1="16.6" x2="306.9" y2="0"/>
<line class="st3" x1="302.1" y1="2.6" x2="320.9" y2="20"/>
<line class="st3" x1="317.3" y1="16.7" x2="342.4" y2="0"/>
<line class="st3" x1="338.1" y1="2.9" x2="350" y2="12.7"/>
<line class="st3" x1="346.7" y1="10" x2="330.3" y2="32.1"/>
<line class="st3" x1="331.4" y1="54" x2="350" y2="38"/>
<line class="st3" x1="344.1" y1="43.1" x2="350" y2="75.7"/>
<line class="st3" x1="330.3" y1="88" x2="347.8" y2="63.6"/>
<line class="st3" x1="340.7" y1="73.6" x2="350" y2="96.7"/>
<line class="st3" x1="336.4" y1="79.5" x2="330.3" y2="112.3"/>
<line class="st3" x1="332.2" y1="106" x2="350" y2="123.7"/>
<line class="st3" x1="330.3" y1="149.7" x2="346.1" y2="119.8"/>
<line class="st3" x1="334.2" y1="142.4" x2="350" y2="162.7"/>
<line class="st3" x1="334.9" y1="292.9" x2="350" y2="265.7"/>
<line class="st3" x1="345.3" y1="274.1" x2="350" y2="235.7"/>
<line class="st3" x1="330.3" y1="267.3" x2="347" y2="260.2"/>
<line class="st3" x1="341.7" y1="262.5" x2="330.5" y2="231"/>
<line class="st3" x1="337.8" y1="251.6" x2="350" y2="230.3"/>
<line class="st3" x1="330.3" y1="209" x2="347" y2="235.5"/>
<line class="st3" x1="335.1" y1="216.6" x2="350" y2="192.7"/>
<line class="st3" x1="342.6" y1="204.6" x2="330.5" y2="155.7"/>
<rect x="34" y="32" class="st4" width="277.5" height="139.7"/>
<rect x="34" y="193" class="st4" width="277.5" height="113.3"/>
<path class="st5" d="M222.3,224.3"/>
<path class="st5" d="M20.3,20"/>
<path class="st5" d="M20.3,234.3"/>
<path class="st5" d="M150.1,151.3"/>
<path class="st5" d="M197.1,287"/>
<path class="st5" d="M95.1,186.5"/>
<path class="st5" d="M142.9,291.9"/>
<path class="st5" d="M137.8,228.7"/>
<line class="st4" x1="141.2" y1="270.9" x2="21.1" y2="289.7"/>
<path class="st6" d="M46.7,254.9"/>
<path class="st6" d="M139.7,251.8"/>
<path class="st6" d="M112.1,309.3"/>
<path class="st6" d="M72.7,254.9"/>
<path class="st6" d="M236.7,282.1"/>
<path class="st6" d="M142.9,291.9"/>
<path class="st6" d="M245.2,114.8"/>
<path class="st6" d="M209.6,284.9"/>
<path class="st6" d="M112.1,114.8"/>
<path class="st6" d="M147.7,17.4"/>
<path class="st6" d="M300.7,134.7"/>
<path class="st6" d="M127.1,75.8"/>
<path class="st6" d="M305.7,20"/>
<path class="st6" d="M203.7,101.8"/>
<path class="st6" d="M330.5,231"/>
<path class="st6" d="M285.1,129.5"/>
<path class="st6" d="M330.5,138.3"/>
<path class="st6" d="M300.7,134.7"/>
<path class="st6" d="M309.5,184.1"/>
<path class="st6" d="M225.1,210.8"/>
<path class="st6" d="M330.5,306.3"/>
<path class="st6" d="M280,193.4"/>
<path class="st6" d="M248.1,330"/>
<path class="st6" d="M307.8,257.8"/>
<path class="st6" d="M101,293.9"/>
<path class="st6" d="M142.9,291.9"/>
<path class="st6" d="M258.6,317.3"/>
<path class="st6" d="M236.7,282.1"/>
<path class="st6" d="M121.9,330"/>
<path class="st6" d="M112.1,309.3"/>
<path class="st6" d="M20.3,254.9"/>
<path class="st6" d="M46.7,254.9"/>
<path class="st6" d="M237.3,152.5"/>
<path class="st6" d="M172.7,175.2"/>
</svg>
